<svg width="50px" height="50px" viewBox="0 0 24 24" fill="none" xmlns="http://www.w3.org/2000/svg">
    <path d="M16.5 2C13.4624 2 11 4.46243 11 7.5V9.5H10.5029C10.1818 9.5 9.86701 9.51234 9.55976 9.53725L9.27295 9.5587L6.58971 7.26585C5.27813 6.16049 3.36048 6.25739 2.25511 7.56897C1.14975 8.88054 1.24665 10.7982 2.55822 11.9035L5.03205 13.8738C3.78071 16.3963 4.23874 19.6797 6.382 21.5413C7.23406 22.288 8.29791 22.6767 9.38817 22.693C10.3128 22.7078 11.2301 22.4538 12.0138 21.9685C12.7975 21.4833 13.4063 20.787 13.7592 19.9693L15.3796 20.9999L15.3591 21.0379C15.2113 22.082 14.1174 22.7071 13.024 22.7071H12.9612C11.6278 22.7071 10.4367 21.8178 9.83018 20.6093L9.69616 20.3466L9.59258 20.1514C9.28562 19.5874 8.75467 19.1913 8.14285 19.0185L8 18.9897L7.85714 19.0185C7.24532 19.1913 6.71437 19.5874 6.40741 20.1514L6.30382 20.3466L6.16981 20.6093C5.56331 21.8178 4.37216 22.7071 3.03883 22.7071H2.976C1.88261 22.7071 0.788688 22.082 0.641204 21.0379L0.620636 20.9999L2.24098 19.9693C2.59391 20.787 3.20267 21.4833 3.98636 21.9685C4.77005 22.4538 5.68735 22.7078 6.61197 22.693C7.70222 22.6767 8.76607 22.288 9.61814 21.5413C11.7614 19.6797 12.2194 16.3963 10.9681 13.8738L13.4419 11.9035C14.7535 10.7982 14.8504 8.88054 13.745 7.56897C12.6396 6.25739 10.7219 6.16049 9.41035 7.26585L6.7271 9.5587L6.44029 9.53725C6.13305 9.51234 5.81821 9.5 5.49712 9.5H5.00001V7.5C5.00001 4.46243 7.46244 2 10.5 2H16.5Z" fill="#ff00ff"/>
</svg>
